<svg width="16" height="18" viewBox="0 0 16 18" fill="none" xmlns="http://www.w3.org/2000/svg">
<path fill-rule="evenodd" clip-rule="evenodd" d="M3.99976 2C2.89516 2 1.99976 2.89542 1.99976 3.99992V15.5274L7.12677 11.8655C7.12691 11.8654 7.12705 11.8653 7.12719 11.8652C7.12731 11.8651 7.12742 11.865 7.12754 11.865C7.64949 11.4919 8.35097 11.4921 8.87275 11.8655L13.9998 15.5283V3.99992C13.9998 2.89542 13.1043 2 11.9998 2H3.99976ZM-0.000244141 3.99992C-0.000244141 1.7908 1.79064 0 3.99976 0H11.9998C14.2089 0 15.9998 1.7908 15.9998 3.99992V16.4988C15.9998 16.4991 15.9998 16.4993 15.9998 16.4996C15.9999 17.0617 15.6858 17.5766 15.186 17.8338C14.6862 18.091 14.0847 18.0471 13.6274 17.7203C13.6272 17.7201 13.627 17.72 13.6268 17.7198L7.99972 13.6998L2.37275 17.7188C1.91589 18.0458 1.31463 18.09 0.81481 17.8335C0.314994 17.577 0.000424171 17.0626 -0.00024344 16.5008L-0.000244141 3.99992Z" fill="#fff"/>
</svg>
