<svg width="14" height="14" viewBox="0 0 14 14" fill="none" xmlns="http://www.w3.org/2000/svg">
<path d="M6.99998 0.333344C5.68144 0.333344 4.39251 0.724337 3.29618 1.45688C2.19985 2.18942 1.34537 3.23061 0.840786 4.44879C0.336202 5.66696 0.204179 7.00741 0.461414 8.30061C0.718649 9.59382 1.35359 10.7817 2.28594 11.7141C3.21829 12.6464 4.40617 13.2813 5.69938 13.5386C6.99259 13.7958 8.33303 13.6638 9.55121 13.1592C10.7694 12.6546 11.8106 11.8001 12.5431 10.7038C13.2757 9.60748 13.6666 8.31855 13.6666 7.00001C13.6666 6.12453 13.4942 5.25762 13.1592 4.44879C12.8241 3.63995 12.3331 2.90502 11.714 2.28596C11.095 1.66691 10.36 1.17584 9.55121 0.840813C8.74237 0.505782 7.87546 0.333344 6.99998 0.333344ZM6.99998 12.3333C5.94515 12.3333 4.914 12.0205 4.03694 11.4345C3.15988 10.8485 2.47629 10.0155 2.07263 9.04099C1.66896 8.06645 1.56334 6.99409 1.76913 5.95953C1.97492 4.92496 2.48287 3.97465 3.22875 3.22877C3.97463 2.48289 4.92494 1.97494 5.9595 1.76916C6.99407 1.56337 8.06642 1.66899 9.04096 2.07265C10.0155 2.47632 10.8485 3.15991 11.4345 4.03697C12.0205 4.91403 12.3333 5.94518 12.3333 7.00001C12.3333 8.4145 11.7714 9.77105 10.7712 10.7712C9.77103 11.7714 8.41447 12.3333 6.99998 12.3333ZM9.06665 7.42001L7.66665 6.61334V3.66668C7.66665 3.48987 7.59641 3.3203 7.47139 3.19527C7.34636 3.07025 7.17679 3.00001 6.99998 3.00001C6.82317 3.00001 6.6536 3.07025 6.52858 3.19527C6.40355 3.3203 6.33332 3.48987 6.33332 3.66668V7.00001C6.33332 7.00001 6.33332 7.05334 6.33332 7.08001C6.33726 7.12595 6.34852 7.17096 6.36665 7.21334C6.38038 7.2529 6.39826 7.29089 6.41998 7.32668C6.43823 7.36457 6.46058 7.40034 6.48665 7.43334L6.59332 7.52001L6.65332 7.58001L8.38665 8.58001C8.48825 8.6376 8.6032 8.66748 8.71998 8.66668C8.86759 8.66771 9.01137 8.61972 9.12877 8.53024C9.24617 8.44075 9.33056 8.31484 9.36869 8.17223C9.40682 8.02963 9.39654 7.8784 9.33946 7.74226C9.28239 7.60613 9.18174 7.49279 9.05332 7.42001H9.06665Z" fill="#fff" fill-opacity="0.7"/>
</svg>
